<?xml version="1.0" standalone="no"?>
<!DOCTYPE svg PUBLIC "-//W3C//DTD SVG 20010904//EN"
 "http://www.w3.org/TR/2001/REC-SVG-20010904/DTD/svg10.dtd">
<svg version="1.0" xmlns="http://www.w3.org/2000/svg"
 width="512.000000pt" height="512.000000pt" viewBox="0 0 512.000000 512.000000"
 preserveAspectRatio="xMidYMid meet">
<metadata>
Created by potrace 1.16, written by Peter Selinger 2001-2019
</metadata>
<g transform="translate(0.000000,512.000000) scale(0.100000,-0.100000)"
fill="#000000" stroke="none">
<path d="M465 5101 c-166 -48 -315 -168 -392 -316 -74 -144 -74 -139 -71 -723
l3 -519 29 -41 c73 -106 236 -122 329 -34 64 60 62 40 67 577 l5 490 28 47
c18 31 44 57 75 75 l47 28 490 5 c537 5 517 3 577 67 88 93 72 256 -34 329
l-41 29 -526 2 c-474 2 -532 0 -586 -16z"/>
<path d="M3535 5106 c-131 -58 -166 -245 -67 -349 60 -64 40 -62 577 -67 l490
-5 47 -28 c31 -18 57 -44 75 -75 l28 -47 5 -490 c5 -537 3 -517 67 -577 93
-88 256 -72 329 34 l29 41 3 519 c3 584 3 579 -71 723 -56 108 -154 206 -262
262 -142 73 -139 73 -711 73 -401 -1 -515 -4 -539 -14z"/>
<path d="M2460 4693 c-404 -29 -696 -164 -825 -381 -26 -44 -36 -52 -75 -62
-78 -20 -192 -70 -269 -117 -238 -148 -390 -400 -431 -713 -13 -103 -13 -1056
1 -1178 33 -304 121 -557 299 -857 245 -412 521 -695 813 -834 399 -189 901
-168 1272 54 226 135 416 331 622 640 240 361 342 616 388 968 22 169 22 1096
0 1242 -59 390 -265 713 -600 937 -330 222 -770 332 -1195 301z m-414 -1643
c245 -291 573 -462 915 -477 118 -5 129 -4 166 17 48 27 83 83 83 135 0 20 3
35 8 33 4 -2 40 -20 80 -41 115 -60 178 -70 376 -62 l169 8 -7 -179 c-16 -399
-89 -622 -319 -971 -269 -411 -507 -598 -819 -644 -99 -14 -278 -6 -368 17
-91 23 -240 95 -319 153 -231 172 -526 593 -639 912 -56 159 -91 391 -92 610
l0 45 108 51 c129 62 230 127 335 217 74 64 174 179 214 246 9 17 20 29 23 28
4 -2 42 -46 86 -98z"/>
<path d="M2056 1790 c-93 -28 -139 -159 -85 -246 30 -50 155 -147 243 -189
113 -54 209 -75 346 -75 141 0 238 22 355 80 82 41 193 125 227 171 67 90 21
231 -85 260 -64 17 -111 3 -175 -52 -135 -115 -271 -151 -430 -114 -81 19
-127 43 -202 106 -79 66 -124 79 -194 59z"/>
<path d="M113 1685 c-32 -16 -61 -41 -79 -67 l-29 -41 -3 -519 c-3 -584 -3
-579 71 -723 56 -109 154 -206 263 -263 140 -72 147 -73 728 -70 l513 3 41 29
c106 73 122 236 34 329 -60 64 -40 62 -577 67 l-490 5 -47 28 c-31 18 -57 44
-75 75 l-28 47 -5 490 c-5 537 -3 517 -67 577 -65 63 -164 75 -250 33z"/>
<path d="M4820 1694 c-42 -18 -86 -58 -108 -99 -15 -26 -18 -88 -22 -520 l-5
-490 -28 -47 c-18 -31 -44 -57 -75 -75 l-47 -28 -490 -5 c-537 -5 -517 -3
-577 -67 -88 -93 -72 -256 34 -329 l41 -29 513 -3 c581 -3 588 -2 728 70 109
57 207 154 263 263 74 144 74 139 71 723 l-3 519 -29 41 c-55 79 -177 114
-266 76z"/>
</g>
</svg>
