<svg width="512" height="512" xmlns="http://www.w3.org/2000/svg">
 <!-- Created with UXWing SVG Editor - https://uxwing.com/svg-icon-editor/ -->

 <g>
  <title>background</title>
  <rect fill="none" id="canvas_background" height="514" width="514" y="-1" x="-1"/>
  <g display="none" overflow="visible" y="0" x="0" height="100%" width="100%" id="canvasGrid">
   <rect fill="url(#gridpattern)" stroke-width="0" y="0" x="0" height="100%" width="100%"/>
  </g>
 </g>
 <g>
  <title>Layer 1</title>
  <metadata transform="matrix(7.111111534966369,0,0,7.111111534966369,0,0) ">Created by potrace 1.16, written by Peter Selinger 2001-2019</metadata>
  <g id="svg_6">
   <g id="svg_4" fill="#000000" transform="matrix(0.7111111640930189,0,0,-0.7111111640930189,0,455.1111382378476) ">
    <path fill="#ffffff" id="svg_5" d="m229.666878,571.346981c-10,-10 -30,-21 -45,-25c-18,-4 -32,-18 -41,-39c-7,-18 -29,-49 -48,-69c-31,-33 -35,-44 -41,-117c-5,-51 -3,-87 3,-100c6,-11 11,-34 11,-51c0,-33 19,-55 83,-100c20,-14 37,-31 37,-38c0,-7 11,-24 25,-37c26,-27 80,-34 117,-14c14,8 23,8 31,0c16,-16 55,-14 112,6c68,24 156,111 178,177c22,63 22,169 0,232c-22,66 -110,153 -178,177c-56,19 -101,22 -110,7c-4,-7 -12,-7 -25,0c-31,16 -88,12 -109,-9zm99,-21c19,-19 20,-33 20,-267c0,-240 -1,-247 -22,-270c-12,-13 -33,-23 -47,-23c-33,0 -71,37 -71,69c0,27 35,71 57,71c7,0 13,5 13,10c0,22 -34,8 -67,-27c-28,-29 -37,-33 -44,-22c-18,29 2,79 32,79c5,0 9,5 9,10c0,26 -60,-16 -72,-51c-8,-22 -48,19 -48,49c0,28 35,72 57,72c7,0 13,5 13,10c0,16 -25,11 -52,-10c-14,-10 -28,-16 -32,-13c-10,10 -7,61 5,68c6,4 7,19 4,35c-4,16 -1,38 5,50l11,21l24,-25c23,-25 45,-34 45,-18c0,4 -9,13 -20,20c-22,14 -26,42 -8,60c19,19 45,14 62,-10c17,-24 30,-20 20,7c-4,9 -20,23 -37,30l-30,12l24,24l23,23l7,-34c8,-35 40,-70 65,-70c8,0 14,5 14,10c0,6 -4,10 -10,10c-17,0 -50,39 -50,60c0,11 9,29 20,40c11,11 29,20 40,20c11,0 29,-9 40,-20zm140,-11c224,-101 227,-410 5,-515c-64,-30 -91,-31 -99,-1c-8,29 -8,485 0,515c8,28 34,28 94,1z"/>
   </g>
  </g>
 </g>
</svg>