<?xml version="1.0" standalone="no"?>
<!DOCTYPE svg PUBLIC "-//W3C//DTD SVG 20010904//EN"
 "http://www.w3.org/TR/2001/REC-SVG-20010904/DTD/svg10.dtd">
<svg version="1.0" xmlns="http://www.w3.org/2000/svg"
 width="512.000000pt" height="512.000000pt" viewBox="0 0 512.000000 512.000000"
 preserveAspectRatio="xMidYMid meet">
<metadata>
Created by potrace 1.16, written by Peter Selinger 2001-2019
</metadata>
<g transform="translate(0.000000,512.000000) scale(0.100000,-0.100000)"
fill="#000000" stroke="none">
<path d="M3494 5104 c-99 -16 -251 -64 -351 -110 -255 -116 -508 -358 -642
-613 -46 -89 -121 -288 -121 -323 0 -12 -19 -9 -105 16 -88 26 -105 34 -105
51 0 31 -45 90 -82 108 -55 26 -227 40 -413 34 -286 -9 -495 -59 -663 -159
-76 -45 -182 -151 -222 -221 -23 -41 -39 -59 -58 -63 -173 -39 -325 -118 -445
-232 -142 -135 -234 -314 -272 -532 -22 -126 -22 -1156 1 -1309 32 -224 101
-440 200 -629 256 -489 582 -845 915 -1001 180 -84 301 -111 531 -118 270 -8
446 28 657 137 255 131 465 338 700 690 256 385 360 668 393 1063 13 162 8
204 -29 247 -65 78 -164 81 -241 7 -39 -38 -52 -80 -52 -171 0 -154 -49 -393
-116 -561 -7 -18 -6 -19 10 -6 21 18 -152 -273 -253 -422 -277 -413 -525 -601
-866 -653 -278 -44 -558 26 -781 194 -197 149 -421 439 -584 758 -119 231
-188 534 -178 777 l3 78 142 63 c78 35 188 94 243 130 124 81 271 222 343 327
l54 78 63 -80 c133 -169 336 -329 517 -409 121 -54 253 -87 398 -101 121 -12
124 -12 171 12 65 32 94 77 94 144 0 37 -6 61 -23 85 -35 53 -73 70 -178 78
l-93 7 -18 47 c-34 91 -49 198 -46 322 l3 119 52 -84 c148 -244 308 -409 445
-461 44 -16 83 -18 407 -18 254 0 360 3 363 11 3 8 25 4 71 -10 188 -58 451
-73 647 -37 370 67 710 291 915 604 155 237 225 476 225 768 0 237 -46 431
-152 637 -196 381 -577 661 -997 731 -116 20 -362 20 -477 0z m353 -315 c238
-26 441 -121 613 -286 103 -97 168 -184 224 -298 261 -526 47 -1162 -479
-1421 -165 -81 -274 -107 -460 -108 -239 -1 -413 50 -610 179 -77 51 -229 203
-280 280 -217 331 -243 721 -71 1070 175 355 526 578 934 594 18 0 76 -4 129
-10z"/>
<path d="M4194 4304 c-19 -9 -165 -168 -355 -385 -177 -203 -325 -369 -328
-369 -4 0 -76 70 -161 156 -169 170 -214 201 -279 189 -55 -10 -97 -41 -120
-89 -26 -53 -27 -96 -2 -144 11 -20 124 -141 253 -269 199 -198 239 -233 276
-243 54 -14 112 0 152 38 69 64 774 880 787 912 57 132 -92 269 -223 204z"/>
<path d="M1195 1246 c-16 -8 -43 -28 -59 -45 -40 -42 -49 -133 -17 -184 40
-64 175 -163 291 -212 190 -80 438 -74 629 15 145 68 265 179 276 255 13 81
-46 166 -124 181 -54 11 -98 -5 -161 -57 -120 -99 -259 -142 -394 -120 -87 14
-176 55 -236 108 -81 72 -139 88 -205 59z"/>
</g>
</svg>
